<?xml version="1.0" standalone="no"?>
<!DOCTYPE svg PUBLIC "-//W3C//DTD SVG 1.1//EN" "http://www.w3.org/Graphics/SVG/1.1/DTD/svg11.dtd" >
<svg xmlns="http://www.w3.org/2000/svg">
<metadata>Generated by IcoMoon</metadata>
<defs>
<font id="yangtze-lectures" horiz-adv-x="1024">
<font-face units-per-em="1024" ascent="819.2" descent="-204.8" />
<missing-glyph horiz-adv-x="1024" />
<glyph unicode="&#x20;" horiz-adv-x="512" d="" />
<glyph unicode="&#x41;" glyph-name="A" horiz-adv-x="740" d="M422.912 735.744q0 24.576 10.24 46.592t28.16 37.888 40.96 25.088 47.616 9.216q47.104 0 78.848-31.232t31.744-82.432v-10.24l-19.456-276.48q-3.072-36.864-3.584-70.144t-0.512-62.976q0-123.904 10.24-202.24t10.24-112.128q0-9.216-9.728-15.36t-33.28-6.144q-14.336 0-39.936 19.968t-51.712 61.952-47.616 107.008-26.624 154.112q-32.768-54.272-69.632-96.256-15.36-18.432-33.792-35.328t-38.4-30.72-40.96-22.016-42.496-8.192q-27.648 0-44.544 9.728t-26.112 20.992q-11.264 13.312-16.384 30.72-10.24-13.312-30.72-34.304t-46.592-45.056-56.32-49.152-61.44-45.056-61.952-32.768-56.32-12.8q-8.192 0-17.408 1.536t-9.216 8.704q0 11.264 8.704 24.576t35.84 41.472 76.288 77.312 130.048 132.096q61.44 62.464 117.76 124.928t104.96 120.32 88.064 108.032 67.072 89.088q-2.048 7.168-2.048 14.336v15.36zM450.56 564.736q-43.008-56.32-97.792-113.664t-102.912-113.664q50.176 0 99.328 14.848t101.376 38.4v174.080z" />
<glyph unicode="&#x43;" glyph-name="C" horiz-adv-x="944" d="M391.168 204.288q113.664 0 207.872 13.312t167.424 28.672 124.416 28.672 77.824 13.312q18.432 0 18.432-9.216 0-14.336-31.744-40.448t-85.504-56.832-123.904-63.488-146.432-59.392-153.6-43.52-144.896-16.896q-62.464 0-115.2 9.728t-91.136 35.84-60.416 71.168-22.016 115.712q0 67.584 27.136 138.24t75.264 137.216 114.688 125.952 143.872 103.936 163.328 70.144 174.080 25.6q76.8 0 117.76-23.552t40.96-76.8q0-30.72-10.24-52.736t-26.624-36.352-37.888-21.504-44.032-7.168q-15.36 0-35.328 7.168t-28.16 18.432q-45.056 0-104.448-15.872t-122.88-42.496-124.928-61.952-110.080-74.24-78.336-78.336-29.696-75.264q0-31.744 30.72-49.152t74.24-26.112 90.112-10.24 79.36-1.536z" />
<glyph unicode="&#x45;" glyph-name="E" horiz-adv-x="877" d="M855.040 818.688q8.192 0 8.192-7.168 0-8.192-22.016-25.6t-58.368-38.912-82.432-44.032-93.696-40.96-93.184-30.208-79.36-11.776q-21.504 0-38.912 3.584t-29.696 8.704q-14.336 5.12-24.576 12.288 1.024-5.12 1.536-12.8t0.512-15.872q0-14.336-1.536-33.28t-5.632-38.912-10.24-39.424-15.36-35.84q48.128 0 104.96 8.192t110.080 18.432 97.28 18.432 65.536 8.192q5.12 0 5.12-8.192-1.024-12.288-19.456-32.256t-48.128-43.008-67.584-47.104-78.336-43.52-79.872-31.744-71.168-12.288q-9.216 0-23.040 0.512t-28.672 1.536-28.672 3.072-23.040 4.096q-16.384-16.384-28.672-33.792t-20.48-31.744q-10.24-17.408-17.408-34.816 21.504-6.144 50.176-10.24 24.576-4.096 58.88-6.656t79.36-2.56q98.304 0 181.248 14.848t146.944 32.256 106.496 32.256 60.928 14.848q10.24 0 22.016-2.048t11.776-8.192q0-9.216-30.208-33.792t-81.92-55.808-118.784-64.512-141.312-61.44-149.504-46.080-142.848-17.92q-41.984 0-81.408 12.288t-69.632 38.4-48.64 66.56-18.432 97.792q0 44.032 14.848 86.528t38.4 83.968 52.224 81.92 56.832 80.896 52.224 80.896 38.4 82.432q-11.264 7.168-11.264 24.576 0 21.504 18.944 37.888t50.176 26.624 72.192 15.36 84.992 5.12h393.216z" />
<glyph unicode="&#x47;" glyph-name="G" horiz-adv-x="1007" d="M11.264 208.384q0 83.968 32.768 162.304t88.576 145.92 130.56 123.392 158.208 95.744 172.032 61.952 172.544 22.016q22.528 0 42.496-8.704t34.816-24.064 23.552-35.328 8.704-42.496-8.704-42.496-23.552-34.816-34.816-23.552-42.496-8.704q-27.648 0-51.712 12.8t-38.4 35.328q-46.080-2.048-104.96-20.48t-121.344-47.616-121.856-66.048-106.496-76.8-75.776-79.36-28.672-74.24q0-18.432 19.968-31.232t52.224-20.992 73.728-11.776 84.48-3.584q90.112 0 159.744 12.288t117.248 30.72 72.192 39.424 24.576 37.376q0 3.072-2.048 6.144t-6.144 3.072q-9.216 0-28.16-3.072t-40.96-6.656-43.52-6.656-34.816-3.072q-18.432 0-35.84 10.24t-30.208 25.6-20.48 33.28-7.68 34.304q0 48.128 54.272 48.128 17.408 0 29.184-5.12t33.792-11.264 60.928-11.264 111.616-5.12q24.576 0 50.176-20.992t46.592-50.688 33.792-61.44 12.8-52.224q0-15.36-4.096-41.984t-13.824-57.856-26.112-62.976-39.936-57.856-55.296-42.496-73.728-16.384q-27.648 0-44.544 12.288t-25.6 30.208-11.264 37.376-2.56 34.816v17.408q0 4.096 1.024 7.168-46.080-36.864-102.4-64.512-48.128-24.576-112.64-44.544t-138.24-19.968q-36.864 0-79.36 7.168t-79.36 30.208-60.928 66.048-24.064 115.712z" />
<glyph unicode="&#x4c;" glyph-name="L" horiz-adv-x="782" d="M153.6-37.376q-24.576 0-45.568 13.824t-37.888 35.84-29.696 50.176-21.504 56.32-13.312 54.272-4.608 44.544q0 15.36 12.8 55.808t34.304 95.232 50.688 118.272 61.952 124.416 68.096 113.152 69.12 84.992q14.336 13.312 30.72 22.016t36.864 8.704q33.792 0 56.832-22.528t23.040-57.344q0-11.264-3.072-21.504t-8.192-19.456q-22.528-44.032-55.808-100.864t-70.144-127.488-74.24-156.16-68.096-185.856h64.512q93.184 0 172.032 18.432t140.288 40.448 103.936 40.448 65.024 18.432q15.36 0 15.36-9.216 0-14.336-26.624-41.472t-71.168-59.904-102.912-67.072-121.856-62.464-128.512-46.080-122.368-17.92z" />
<glyph unicode="&#x4e;" glyph-name="N" horiz-adv-x="873" d="M257.024 808.448q2.048 18.432 15.36 31.232t31.744 12.8 39.936-9.728 41.472-24.576 35.328-32.768 20.48-35.328q6.144-18.432 12.288-52.736t13.824-77.824 16.896-91.648 20.48-94.72 24.576-87.040 29.696-68.096l130.048 322.56q40.96 102.4 83.456 176.64t80.896 122.368 69.632 71.168 50.688 23.040q13.312 0 13.312-12.288 0-2.048-0.512-3.072t-0.512-3.072q-51.2-186.368-105.472-337.408t-100.352-271.872-78.848-215.040-39.936-166.912q-2.048-17.408-11.264-23.552t-29.696-6.144q-14.336 0-35.84 8.704t-42.496 21.504-35.84 28.16-14.848 27.648q0 5.12 0.512 15.36t0.512 21.504q0 33.792-19.456 84.992t-45.568 112.64-53.76 129.536-43.008 134.656q-12.288-56.32-33.28-109.056t-46.080-101.376-51.712-92.16-48.64-81.92-37.888-71.168-19.968-58.368q-2.048-16.384-13.312-23.040t-25.6-6.656q-23.552 0-33.28 31.232t-9.728 79.36q0 71.68 14.848 140.8t39.936 136.704 57.344 133.12 68.096 132.096q25.6 47.104 46.080 81.92t20.48 59.392q0 4.096-0.512 8.192t-0.512 10.24z" />
<glyph unicode="&#x52;" glyph-name="R" horiz-adv-x="827" d="M125.952 720.384q0 39.936 28.672 62.976t68.608 34.304 83.968 13.824 74.752 2.56q51.2 0 102.912-2.56t99.84-8.192 90.624-15.872 73.728-26.112 49.152-37.888 17.92-51.712q0-56.32-26.112-101.376t-65.024-81.408-84.48-64.512-84.992-50.176-66.56-38.912-28.16-31.232q0-2.048-0.512-4.608t-0.512-4.608q0-24.576 12.288-52.224t29.696-53.76 37.888-48.64 37.888-38.912q18.432-16.384 44.544-34.816t55.296-36.864 57.856-35.328 51.2-31.232 36.864-25.6 14.336-16.384q0-9.216-14.336-9.216-27.648 0-75.776 16.896t-102.912 41.984-108.544 54.784-92.672 55.296q-30.72 19.456-60.416 43.52t-54.784 50.176-44.032 54.272-28.16 57.856q-16.384-44.032-38.912-97.792t-47.616-101.376-50.176-79.872-44.544-32.256q-15.36 0-28.672 16.896t-23.552 42.496-16.384 54.272-6.144 52.224q0 32.768 11.776 57.856t29.696 48.128 38.912 46.080 39.936 51.2 32.768 63.488 16.896 84.48q-2.048 2.048-4.096 6.144-3.072 6.144-3.072 16.384 0 24.576 16.384 40.96t45.056 16.384q13.312 0 25.6-8.704t21.504-22.528 14.848-30.208 5.632-30.72v-15.872t-2.048-12.8q48.128 15.36 98.304 38.912t90.624 51.712 66.048 59.392 25.6 62.976q0 20.48-14.848 32.768t-36.864 19.456-47.616 9.216-48.128 2.048q-41.984 0-73.216-9.728t-59.904-20.992q-5.12-31.744-29.696-52.224t-57.344-20.48-54.784 21.504-22.016 54.272z" />
<glyph unicode="&#x53;" glyph-name="S" horiz-adv-x="730" d="M550.912 272.896q0 13.312-24.064 25.088t-61.952 23.040-82.432 22.528-85.504 24.576-72.192 28.672-41.472 34.816q-3.072 5.12-5.632 18.944t-4.608 30.208-3.072 31.744-1.024 24.576q0 72.704 41.984 127.488t106.496 91.648 141.824 55.296 148.992 18.432q22.528 0 42.496-8.704t35.328-23.552 24.064-34.816 8.704-42.496-8.704-42.496-24.064-34.816-35.328-23.552-42.496-8.704q-27.648 0-51.712 12.8t-38.4 33.28q-22.528-3.072-50.176-9.728t-56.832-15.872-57.344-19.968-49.664-20.992-35.328-20.48-13.824-17.408q0-18.432 25.088-34.816t64-32.256 84.48-32.256 86.016-33.792 70.144-35.84 35.84-39.936q3.072-9.216 5.632-24.576t5.12-32.256 4.096-33.28 1.536-26.624q0-27.648-27.648-66.56t-79.872-75.264-128.512-61.952-173.568-25.6q-31.744 0-76.8 11.776t-86.016 39.424-70.144 72.192-29.184 109.056q0 35.84 3.584 69.12t9.216 58.88 11.776 40.96 12.288 15.36q5.12 0 9.216-13.824t13.824-34.816 27.136-45.056 48.64-45.056 78.848-34.816 118.272-13.824q44.032 0 88.576 2.56t80.896 8.192 59.904 14.336 23.552 20.992z" />
<glyph unicode="&#x54;" glyph-name="T" horiz-adv-x="631" d="M360.448 850.432q17.408 0 30.72-9.728t23.552-17.92q31.744 0 65.024-1.536t71.68-3.584 84.992-3.584 104.96-1.536q24.576 0 31.232-11.776t6.656-22.016q0-14.336-18.432-25.088t-45.056-25.088q-18.432-10.24-39.936-17.408t-51.712-13.312-71.68-11.776-99.84-11.776l-3.072-41.984q-8.192-103.424-30.208-177.664t-52.224-134.656-65.536-113.664-69.12-113.664q-18.432-32.768-27.648-56.832t-15.36-39.424-12.8-23.040-19.968-7.68q-10.24 0-23.040 11.776t-23.552 35.328-17.92 60.416-7.168 87.040q0 99.328 22.528 187.392t51.712 157.696 56.32 116.736 36.352 65.536q-72.704-1.024-126.464 16.896t-87.552 44.544q-6.144 5.12-14.848 9.728t-15.872 10.24-12.288 11.776-5.12 14.336q0 12.288 10.24 16.384t27.648 4.096q10.24 0 33.792-1.536t51.2-4.096 54.784-4.096 45.568-1.536q19.456 0 36.864 0.512t33.792 2.56q11.264 14.336 30.208 28.672t46.592 14.336z" />
<glyph unicode="&#x55;" glyph-name="U" horiz-adv-x="886" d="M296.96 841.216q14.336 13.312 30.72 22.528t36.864 9.216q17.408 0 36.864-6.656t36.352-17.408 27.648-26.112 10.752-31.744q0-11.264-3.072-21.504t-7.168-18.432q-17.408-30.72-45.568-76.8t-60.928-100.352-66.048-113.664-60.416-115.712-44.032-106.496-16.896-86.016q0-12.288 2.56-22.528t10.752-10.24q21.504 0 77.824 34.816t128.512 100.864 150.528 162.816 145.92 220.672q28.672 52.224 47.616 88.576t20.992 61.952q2.048 21.504 12.8 36.352t36.352 14.848q19.456 0 43.008-12.288t43.52-29.184 33.28-35.84 13.312-31.232v-20.48q0-26.624-16.896-69.632t-43.008-94.208-57.344-104.96-59.904-100.864-51.2-81.92-29.696-48.128q-32.768-56.32-57.856-109.056t-32.256-87.552q-3.072-16.384-13.824-23.552t-25.088-7.168q-24.576 0-34.304 30.72t-9.728 76.8q0 56.32 9.216 117.76-39.936-38.912-87.552-77.312t-96.768-69.12-95.744-49.664-84.48-18.944q-25.6 0-47.104 14.848t-38.4 38.912-29.696 53.76-20.992 58.88-12.288 55.296-4.096 42.496q0 26.624 14.336 73.216t38.4 102.912 54.784 116.736 63.488 116.224 65.536 101.888 60.416 71.68z" />
<glyph unicode="&#x59;" glyph-name="Y" horiz-adv-x="659" d="M664.576 842.24q19.456-1.024 32.256-16.384t19.456-38.4 9.216-49.664 2.56-49.152q0-10.24-0.512-18.944t-1.536-14.848q-2.048-10.24-21.504-43.52t-49.152-78.336-65.024-95.744-68.096-97.28-59.392-82.944-37.888-51.712q-13.312-17.408-43.52-52.736t-69.12-77.824-81.92-88.064-80.384-82.432-65.024-60.416-35.84-23.552q-14.336 0-14.336 18.432v6.144q0 4.096 12.288 36.352t32.768 80.896 47.104 107.008 54.784 115.2 56.32 105.984 52.736 78.848q-28.672 11.264-55.296 27.648-23.552 14.336-49.152 34.816t-45.056 49.152q-6.144 9.216-17.92 34.816t-25.6 58.88-27.648 70.656-25.6 70.144-18.944 56.32-7.168 29.696q0 12.288 8.192 27.648t24.576 15.36q20.48 0 45.056-7.68t46.080-19.968 37.888-27.136 19.456-30.208q13.312-57.344 34.816-108.544t46.080-90.624 49.152-62.464 44.032-23.040q7.168 0 29.184 27.136t51.2 68.096 62.464 88.576 62.976 88.576 52.736 68.096 32.256 27.136z" />
<glyph unicode="&#x5a;" glyph-name="Z" horiz-adv-x="824" d="M428.032 69.12q76.8 0 158.208 2.56t148.992 6.656q78.848 4.096 153.6 9.216 4.096 0 8.704-1.024t4.608-5.12q0-5.12-24.576-17.408t-67.072-27.648-99.84-31.232-124.928-29.184-141.824-22.016-148.992-8.704q-44.032 0-91.648 12.288t-87.552 35.84-66.048 59.392-26.112 81.92v4.096t1.024 15.872 2.56 38.912 4.608 74.24q2.048 37.888 26.624 76.288t62.464 76.288 85.504 73.728 96.768 67.584 96.256 57.856 83.968 45.056 58.88 29.696l22.016 10.752h-191.488q-14.336 0-39.424 6.656t-49.664 17.92-42.496 25.6-17.92 30.72q0 11.264 15.872 22.016t45.568 10.752q14.336 0 52.736 1.536t83.968 4.096 89.6 4.096 70.656 1.536q19.456 0 45.568-8.704t54.272-22.016 55.296-30.208 48.64-34.304 34.816-33.28 13.312-26.112q0-33.792-29.184-71.168t-77.824-77.312-110.080-80.896-125.44-79.872-125.44-75.776-110.080-68.096-77.824-56.832-29.184-41.984q0-36.864 70.656-45.568t208.896-8.704z" />
<glyph unicode="&#x61;" glyph-name="a" horiz-adv-x="588" d="M531.456 336.384q0-7.168-5.12-11.776t-13.312-9.216-17.408-9.216-16.384-11.776q-18.432-17.408-31.232-33.792t-21.504-39.936-13.824-58.88-8.192-89.6q6.144-3.072 14.336-5.12 7.168-2.048 16.896-3.072t23.040-1.024q12.288 0 19.968 1.024t14.848 1.024q9.216 0 9.216-6.144 0-9.216-7.68-21.504t-22.016-24.064-34.304-19.456-44.544-7.68q-15.36 0-34.304 10.24t-36.352 24.064-30.72 28.672-17.408 24.064q-3.072 6.144-4.608 13.312t-3.584 12.288q-2.048 6.144-3.072 12.288-5.12-8.192-26.624-24.576t-49.664-33.792-57.344-30.208-48.64-12.8q-27.648 0-44.032 18.432-5.12 6.144-13.824 20.48t-16.384 33.792-13.312 40.448-5.632 40.448q0 16.384 15.872 41.984t40.96 54.272 57.344 57.344 64.512 51.712 61.952 37.376 50.176 14.336q26.624 0 48.128-11.264t30.72-35.84q19.456 12.288 40.96 17.408t39.936 5.12q43.008 0 67.584-11.776t24.576-47.616zM119.808 173.568q14.336 0 41.472 14.848t54.272 35.84 47.104 41.984 19.968 33.28q0 15.36-12.288 23.552t-24.576 8.192q-7.168 0-28.672-18.432t-44.032-43.008-40.448-49.152-17.92-36.864q0-10.24 5.12-10.24z" />
<glyph unicode="&#x63;" glyph-name="c" horiz-adv-x="538" d="M179.2-0.512q-29.696 0-50.176 3.072t-35.84 8.192-26.112 13.312-19.968 17.408q-8.192 8.192-16.896 23.552t-15.36 31.744-10.752 30.208-4.096 19.968q0 28.672 12.288 60.928t34.304 64 51.712 61.44 64.512 52.224 72.704 35.84 76.8 13.312q35.84 0 61.44-25.6t25.6-61.44-25.6-61.44-61.44-25.6q-31.744 0-56.32 19.456-24.576-10.24-48.64-27.648t-44.032-35.84-32.256-35.328-12.288-26.112q0-7.168 11.776-11.264t28.672-5.632 35.328-2.048 30.72-0.512q34.816 0 74.24 8.192t79.36 20.48 77.824 26.112 69.12 26.112 52.736 20.48 29.696 8.192q5.12 0 6.656-4.608t1.536-6.656-23.040-19.968-60.416-43.52-84.48-55.808-95.744-55.808-94.208-42.496-79.36-16.896z" />
<glyph unicode="&#x65;" glyph-name="e" horiz-adv-x="577" d="M195.584-4.608q-38.912 0-74.24 17.92t-62.464 47.616-43.008 69.632-15.872 83.968q0 53.248 36.352 90.624t89.6 60.928 112.64 33.792 105.472 10.24q16.384 0 36.864-2.048t38.4-6.656 30.208-13.312 12.288-22.016q0-21.504-22.528-52.736t-54.272-59.904-65.024-49.152-55.808-20.48q-11.264 0-25.6 2.56t-29.184 6.144-27.648 8.192-22.016 8.704q-10.24-11.264-17.408-28.16t-7.168-30.208q0-7.168 11.776-11.264t28.672-5.632 35.328-2.048 30.72-0.512q33.792 0 73.728 8.704t79.872 21.504 77.824 27.648 69.12 27.648 52.736 21.504 29.696 8.704q5.12 0 6.656-4.608t1.536-6.656q0-1.024-23.040-19.456t-60.416-45.568-84.48-57.856-95.744-56.832-94.208-43.52-79.36-17.408zM291.84 337.408q-38.912 0-66.048-26.624t-45.568-63.488q12.288 0 32.768 8.192t39.424 20.48 33.28 27.136 14.336 29.184q0 5.12-8.192 5.12z" />
<glyph unicode="&#x67;" glyph-name="g" horiz-adv-x="429" d="M303.104 259.584q0-49.152 6.656-93.696t15.36-87.552 15.36-85.504 6.656-88.576q0-49.152-7.68-104.96t-24.064-110.080-43.008-104.96-64-88.576-87.040-60.928-113.152-23.040q-44.032 0-96.768 25.6t-98.816 66.048-76.8 90.112-30.72 97.792q0 25.6 3.072 48.64t7.68 40.96 9.728 28.672 8.192 10.752q2.048 0 4.096-9.216t3.072-24.064 1.536-31.744 0.512-32.256q0-27.648 10.24-43.008t28.16-23.040 40.448-9.728 47.104-2.048h32.768q89.088 0 149.504 34.816t96.256 92.672 51.2 132.608 15.36 154.624q0 28.672-5.632 59.392t-11.776 69.632q-18.432-14.336-39.936-24.576t-41.984-10.24q-12.288 0-28.16 7.168t-30.72 17.92-25.088 24.576-10.24 27.136q0 17.408 12.288 48.64t31.744 61.44 42.496 52.736 44.544 22.528q22.528 0 36.352-4.096t23.040-9.216 15.36-9.216 12.288-4.096q14.336 0 25.088 6.144t20.992 6.144q9.216 0 20.48-4.608t21.504-11.776 16.896-17.408 6.656-20.48q0-13.312-7.168-22.528t-16.384-18.432-16.384-20.48-7.168-26.624zM121.856 263.68q6.144 0 13.824 3.072t14.848 7.68 12.288 10.24 5.12 10.752-9.216 7.68-17.408 2.56q-11.264 0-19.968-7.168t-8.704-18.432q0-7.168 1.024-11.776t8.192-4.608z" />
<glyph unicode="&#x6c;" glyph-name="l" horiz-adv-x="355" d="M66.56 247.296q28.672 67.584 58.88 131.072t59.904 119.296 58.88 101.888 56.832 78.848q21.504 26.624 51.712 51.2t60.416 43.008 56.32 29.696 41.472 11.264q19.456 0 19.456-16.384 0-13.312-14.336-45.056t-38.4-77.312-55.296-101.376-65.024-116.736-67.072-123.392-60.928-120.832q-7.168-14.336-21.504-44.544t-29.184-67.584-26.112-77.312-11.264-74.752q0-14.336 4.608-20.992t9.728-10.24 10.24-6.656 5.12-9.216q0-9.216-7.68-11.776t-19.968-2.56q-29.696 0-48.64 19.968t-29.696 51.712-15.36 71.168-4.608 78.336q0 39.936 5.12 76.288t16.384 62.976z" />
<glyph unicode="&#x6e;" glyph-name="n" horiz-adv-x="729" d="M582.656-34.304q-25.6 0-47.616 13.312t-38.4 34.304-25.6 45.568-9.216 47.104q0 10.24 1.024 23.552t9.216 13.312q7.168 0 11.776 5.632t7.168 14.848 3.584 19.968 1.024 20.992q0 11.264-2.048 20.48t-4.096 14.336q-3.072 6.144-6.144 10.24-32.768 0-62.976-17.408t-58.368-43.52-54.784-56.832-51.2-56.832-47.616-43.52-44.544-17.408q-27.648 0-49.664 16.384t-38.4 41.984-25.088 56.832-8.704 61.952q0 11.264 5.12 13.824t12.288 2.56q6.144 0 11.264 7.68t8.704 19.968 5.632 27.136 2.048 30.208q0 4.096-0.512 10.752t-2.56 6.656q-5.12 0-8.704-4.096t-6.656-9.728-5.632-9.728-5.632-4.096q-5.12 0-5.12 6.144 0 19.456 4.096 38.912t12.288 34.816 20.48 25.088 27.648 9.728q25.6 0 46.080-14.336t35.84-38.912 23.552-55.808 9.216-65.024q40.96 31.744 86.016 57.344 38.912 21.504 87.552 39.936t99.84 18.432q39.936 0 71.168-24.064t52.736-59.392 32.768-76.8 11.264-76.288q0-24.576-5.632-48.64t-16.896-43.52-28.16-31.744-39.424-12.288z" />
<glyph unicode="&#x72;" glyph-name="r" horiz-adv-x="437" d="M203.776 344.576q0-5.12-0.512-10.24t-0.512-10.24v-10.24q30.72 14.336 60.416 24.576t55.296 10.24q20.48 0 39.936-2.56t34.304-8.704 24.064-17.408 9.216-29.696q0-5.12-1.536-12.288t-4.608-14.336-7.168-12.288-8.192-5.12q-5.12 0-8.192 6.656t-5.632 15.36-5.632 15.36-9.216 6.656q-28.672 0-56.32-12.288t-52.224-31.744-46.080-42.496-37.888-45.568-27.136-40.96-12.8-27.648q-3.072-11.264-4.096-28.16t-4.608-32.768-12.288-27.136-27.136-11.264q-9.216 0-26.624 10.752t-35.328 27.136-31.232 36.864-13.312 40.96q0 31.744 13.824 62.976t30.208 65.024 30.208 72.704 13.824 86.016q0 13.312 11.776 15.872t18.944 2.56q96.256-1.024 96.256-66.56z" />
<glyph unicode="&#x73;" glyph-name="s" horiz-adv-x="474" d="M147.456 285.184q0-16.384 20.48-28.672t50.688-24.576 65.536-25.6 65.536-30.72 50.688-39.936 20.48-53.248q0-28.672-23.040-48.128t-57.344-31.744-74.24-17.408-73.728-5.12q-8.192 0-27.648 6.656t-43.52 17.408-49.664 24.576-46.592 28.672-34.304 29.696-13.312 27.136q0 8.192 4.096 20.48t17.408 12.288q7.168 0 8.704-4.096t1.536-9.216 1.024-9.216 8.192-4.096q15.36 0 46.592 4.608t63.488 12.288 56.32 16.384 24.064 17.92q-22.528 8.192-49.152 20.48t-49.664 30.72-38.4 43.52-15.36 58.88q0 25.6 15.872 46.080t41.472 35.84 57.856 25.6 64.512 16.896 61.952 9.728 50.176 3.072q33.792 0 57.344-23.552t23.552-57.344-23.552-57.344-57.344-23.552q-26.624 0-48.128 15.36t-30.72 39.936q-14.336 0-34.816-5.12t-39.936-14.336-33.28-22.016-13.824-29.184z" />
<glyph unicode="&#x74;" glyph-name="t" horiz-adv-x="452" d="M501.76 385.536q0-19.456-29.184-33.792t-68.608-24.064-78.336-14.848-58.368-6.144l-31.744-61.44q-7.168-14.336-22.016-44.544t-29.184-67.584-25.6-77.312-11.264-74.752q0-14.336 4.608-20.992t9.728-10.24 10.24-6.656 5.12-9.216q0-9.216-7.68-11.776t-19.968-2.56q-29.696 0-48.128 19.456t-29.696 50.688-15.36 69.632-4.096 77.312q0 40.96 5.12 78.848t15.36 64.512l23.552 63.488q-21.504 9.216-43.008 23.040t-38.4 32.768-27.136 41.472-10.24 48.128q0 29.696 21.504 51.2t51.2 21.504q27.648 0 43.008-16.384t23.552-35.328 14.336-35.328 15.36-16.384l1.024-1.024q29.696 50.176 60.416 87.040t55.296 64 39.936 47.104 15.36 37.376q0 23.552 17.408 40.96t41.984 17.408 41.984-17.408 17.408-41.984q0-10.24-3.072-18.432t-8.192-16.384q-36.864-58.368-60.928-123.904t-51.712-132.096h2.048q27.648-2.048 55.296-3.072 23.552-2.048 52.224-2.56t55.296-0.512q8.192 0 15.872-2.56t7.68-6.656z" />
<glyph unicode="&#x75;" glyph-name="u" horiz-adv-x="608" d="M577.536 13.824q0-11.264-10.752-20.48t-27.136-9.216q-32.768 0-57.856 16.384t-42.496 39.936-29.184 51.2-18.944 51.2q-24.576-18.432-39.936-40.448t-31.232-41.472-37.376-32.256-59.392-12.8q-43.008 0-79.872 29.184t-63.488 73.216-41.984 93.184-15.36 89.088q0 16.384 2.048 33.28t8.192 30.208 15.872 22.016 25.088 8.704q22.528 0 43.008-15.872t35.84-38.4 25.6-47.616 13.312-43.52q3.072-21.504 4.096-38.912t2.048-34.304 4.608-34.816 11.776-40.448q19.456 1.024 36.864 20.48t34.304 47.616 32.256 60.928 30.208 60.928 28.672 46.592 28.16 18.432q16.384 0 40.448-11.264t47.104-28.672 40.448-37.888 20.48-39.936q1.024-6.144 1.024-10.752v-9.728q0-20.48-3.584-36.352t-3.584-41.472q0-9.216 1.024-20.48t3.072-25.6q1.024-7.168 5.632-17.408t9.216-21.504 8.192-22.016 3.584-18.944z" />
<glyph unicode="&#x79;" glyph-name="y" horiz-adv-x="546" d="M545.792 402.944q0-11.264-19.968-57.344t-52.736-112.128-74.752-145.408-87.040-159.232q-26.624-46.080-54.272-84.48t-57.344-66.048-60.416-43.008-62.464-15.36q-68.608 0-100.864 24.576t-32.256 67.584q0 33.792 15.872 50.688t37.376 25.088 42.496 11.776 31.232 9.728q38.912 23.552 73.728 56.32t67.584 76.8q-40.96 22.528-78.848 51.712t-66.56 64-45.568 73.728-16.896 80.896q0 17.408 2.56 35.84t8.704 33.28 17.408 24.576 28.672 9.728q22.528 0 41.472-15.872t32.768-38.4 22.528-47.104 11.776-40.96q5.12-26.624 10.752-49.664t14.848-44.032 22.528-41.472 33.792-40.96q19.456 24.576 44.544 57.344t51.712 67.584 54.272 69.12 52.736 61.44 46.592 44.032 36.864 16.896q5.12 0 6.144-1.536t1.024-9.728z" />
<glyph unicode="&#x7a;" glyph-name="z" horiz-adv-x="575" d="M153.6 85.504q57.344 0 113.664 12.288t111.616 27.648 109.568 27.648 108.544 12.288q5.12 0 12.288-1.536t7.168-6.656q0-6.144-25.088-22.528t-66.048-36.864-92.16-42.496-102.912-40.448-99.328-30.208-81.408-11.776q-17.408 0-38.912 14.848t-41.984 34.304-36.352 38.4-22.016 27.136q-5.12 6.144-8.704 10.24t-6.656 8.192-4.608 9.728-1.536 16.896q0 12.288 3.072 35.84 2.048 18.432 15.36 37.376t35.328 37.376 50.688 34.816 61.44 29.696l86.016 33.792q-14.336 3.072-48.128 5.632t-95.232 2.56q-20.48 0-28.16 11.264t-7.68 28.672q0 7.168 5.12 14.848t27.648 13.824 67.584 10.24 124.928 4.096q19.456 0 52.736-5.632t65.536-16.896 55.808-28.672 23.552-40.96q0-26.624-28.16-51.2t-69.632-47.104-90.624-42.496-90.624-37.376-69.632-31.744-28.16-25.6q0-14.336 15.872-16.896t30.208-2.56z" />
<glyph unicode="&#x5802;" glyph-name="uni5802" d="M178.176 425.472q4.096 4.096 6.144 3.584t7.168-6.656q20.48-25.6 27.648-82.944 4.096-33.792 1.536-60.928t-9.728-34.304q-4.096-4.096-5.632-4.096t-3.584 5.12q-3.072 7.168-10.24 7.168-8.192 0-21.504 13.312t-17.408 25.6q-5.12 14.336-5.12 32.768 0 14.336 12.288 53.76t18.432 47.616zM437.248 815.616q10.24 11.264 32.256-6.656t47.616-57.856l16.384-27.648 20.48 2.048q19.456 2.048 59.392 7.168 35.84 5.12 49.664 2.56t30.208-17.408 21.504-39.424q7.168-29.696 1.024-44.032t-32.768-35.84q-47.104-37.888-39.936-43.008 4.096-2.048 24.576-1.024 27.648 3.072 68.608-3.072t59.392-6.144q27.648 0 78.848-47.104 19.456-18.432 26.112-29.184t6.656-23.040q0-26.624-31.744-28.672-11.264 0-16.896 2.56t-14.848 12.8q-9.216 11.264-15.872 14.336t-30.208 4.096q-37.888 3.072-93.184-9.216-11.264-2.048-35.328-13.312t-26.112-15.36q-1.024-1.024 3.584-5.12t11.776-8.192q17.408-10.24 19.456-15.36 7.168-16.384-34.816-61.44-24.576-26.624-48.64-34.304t-26.624-11.776 22.528-26.624 25.088-25.6q-1.024-4.096-15.872-16.384t-27.136-17.408l-15.36-7.168 27.648-7.168q27.648-8.192 55.296-20.48 73.728-35.84-56.32-57.344-4.096-1.024-8.192-1.024l-16.384-3.072-3.072-49.152q-3.072-49.152-5.12-63.488l-3.072-15.36 15.36 3.072q14.336 3.072 37.376 5.632t23.040 5.12-7.168 9.728q-8.192 9.216 1.024 8.192 8.192-1.024 34.816-12.288 87.040-35.84 87.040-47.104-2.048-3.072-4.096-4.096-7.168-2.048-7.168-11.264 0-14.336-11.776-16.384t-75.264 0q-60.416 2.048-96.768 0t-91.648-12.288q-84.992-15.36-112.64-2.048-38.912 20.48-33.792 47.104 6.144 28.672 27.648 18.432 12.288-7.168 49.152-2.56t41.984 9.728q6.144 6.144 12.8 28.672t6.656 35.84q0 9.216-1.536 12.288t-5.632 2.048q-8.192-2.048-46.080-6.656t-45.056-4.608q-8.192 0-16.384 10.24t-10.24 23.552q-3.072 14.336 6.144 29.696t20.48 15.36q23.552 0 50.176 28.672 20.48 22.528 23.040 28.672t-1.536 19.456q-5.12 15.36-9.216 15.36-5.12 0-21.504 16.896t-21.504 27.136q-17.408 35.84-26.624 74.752-8.192 35.84-30.72 64.512-14.336 18.432 1.024 17.408 12.288-1.024 36.864-13.312 23.552-12.288 35.84-12.288t34.816 12.288q38.912 20.48 128 49.152 27.648 9.216 39.936 5.12 8.192-3.072 20.992 1.536t55.808 26.112q64.512 31.744 71.168 32.256t-6.656 7.68q-19.456 10.24-77.824 6.144t-68.608-16.384q-5.12-6.144-10.24-2.048-7.168 6.144-25.088-0.512t-32.256-20.992q-11.264-11.264-15.872-13.312t-9.728 2.048q-8.192 6.144-34.816 4.096-26.624-3.072-37.376-8.192t-38.4-27.648l-30.72-25.6-40.96 6.144q-14.336 2.048-26.624 4.608t-21.504 5.12-15.872 5.12-10.24 5.12-2.56 4.608q1.024 4.096 35.84 21.504t63.488 20.48q22.528 3.072 63.488 14.848t44.032 15.872q2.048 4.096-4.608 37.376t-11.776 41.472q-5.12 10.24-16.384 7.168t-37.888-20.48q-25.6-17.408-33.28-29.184t-7.68-33.28q0-16.384-1.536-17.92t-23.040-4.608q-20.48-3.072-32.256 4.608t-23.040 31.232q-10.24 20.48-8.704 53.248t8.704 45.056q5.12 9.216 9.728 10.24t22.016-1.024q23.552-3.072 26.624-7.168 5.12-8.192 54.784 4.608t78.336 31.232q13.312 8.192 16.384 28.672 2.048 17.408-1.536 47.104t-10.752 50.176q-6.144 17.408-1.024 22.528zM602.112 686.592q0 2.048-8.192 2.048t-19.456-2.048-19.456-6.144q-11.264-5.12-15.36-9.216t-5.12-13.312q-7.168-44.032-1.024-45.056 3.072 0 13.312 11.264 13.312 12.288 17.408 12.288t20.992 22.528 16.896 27.648zM443.392 622.080q2.048 6.144-5.12 6.144-3.072 0-5.12-1.536t-1.024-2.56q1.024-5.12 5.12-5.632t6.144 3.584zM512 340.48q2.048 8.192 1.024 10.24t-8.192 2.048q-11.264-1.024-38.912-11.264t-34.816-17.408q-6.144-5.12-6.144-8.192t4.096-11.264q7.168-13.312 12.288-13.312 6.144 0 32.768 13.312t30.72 18.944 7.168 16.896z" />
<glyph unicode="&#x5927;" glyph-name="uni5927" d="M485.376 829.952q14.336 10.24 31.744 10.24 25.6 0 45.056-28.16t29.696-79.36q5.12-24.576 4.608-39.424t-6.656-58.88q-4.096-23.552 0-33.792t23.552-25.6q16.384-12.288 46.080-15.36t55.296-13.312q17.408-7.168 23.552-12.8t16.384-25.088q9.216-18.432 11.264-27.136t1.024-23.040q-2.048-21.504-5.632-24.576t-64.512-20.992-68.096-24.064-46.080-20.48q-38.912-13.312-55.296-26.624t-24.576-39.936q-15.36-45.056-2.048-50.176 7.168-2.048 70.656-32.768 110.592-53.248 168.96-70.656 61.44-19.456 119.808-76.8l41.984-41.984 1.024-27.648q1.024-28.672-7.68-51.2t-23.040-25.6q-20.48-4.096-77.824 30.72-29.696 18.432-61.44 23.552t-116.736 7.168q-99.328 1.024-114.688-2.048-50.176-12.288-51.712-6.144t49.664 21.504q37.888 11.264 81.408 28.672t43.52 21.504q0 3.072-23.040 22.016t-66.048 57.344-53.76 43.52-19.968-7.168-41.984-76.8q-34.816-68.608-65.024-114.176t-36.352-58.88q-9.216-24.576-54.272-29.696l-22.528-3.072-19.456 33.792q-19.456 33.792-20.992 40.448t-12.8 19.968q-7.168 9.216-7.68 11.776t3.584 6.656q7.168 4.096 4.608 11.776t6.656 7.68q6.144 0 16.384 10.752t10.24 17.92q0 5.12 6.144 10.24t9.216-6.144q2.048-10.24 8.704-10.752t11.776 9.728q5.12 9.216 8.192 11.264t24.576 30.72q14.336 20.48 43.52 79.872t34.304 82.944q3.072 11.264-7.168 11.264t-58.368-14.336q-50.176-15.36-56.32-15.36t-27.648 23.552-27.648 37.888q-15.36 30.72-20.48 50.176t-5.12 49.152q-1.024 27.648 1.024 36.864t9.216 22.528q12.288 20.48 15.872 22.528t31.232-14.336q18.432-11.264 28.16-13.824t32.256-2.56q25.6 0 46.080 6.144t65.536 26.624q19.456 8.192 24.576 13.824t12.288 25.088q9.216 27.648 19.968 78.336t16.896 70.144q10.24 34.816 12.288 49.664t-1.024 33.28q-5.12 24.576-7.168 48.128-2.048 17.408 0 22.016t12.288 11.776z" />
<glyph unicode="&#x6c5f;" glyph-name="uni6C5F" d="M736.256 564.736q4.096 5.12 17.408 0 9.216-4.096 13.824-0.512t23.552-0.512 31.232-5.12q11.264-2.048 27.648-13.824t18.432-19.968 6.656-8.192 12.8-20.48l9.216-20.48-10.24-17.408q-9.216-16.384-35.84-44.032-46.080-45.056-55.296-92.16-5.12-26.624-10.752-37.376t-8.704-22.016q-2.048-9.216 0.512-10.24t15.872 0q16.384 2.048 52.224-2.56t59.392-11.776q13.312-4.096 18.944-8.704t12.8-17.92q10.24-20.48 8.704-27.136t6.656-12.288 3.072-15.36-8.192-18.944q-2.048-10.24-15.872-12.288t-53.76 2.048q-48.128 5.12-60.416 2.048t-28.672-4.096q-44.032-4.096-68.608-15.36-37.888-17.408-94.72-16.896t-114.176 19.968q-21.504 6.144-38.4 17.408t-15.872 17.408q1.024 7.168 43.008 30.208t53.248 23.040q8.192 0 40.448 19.456t48.64 33.792q19.456 18.432 38.912 54.272t20.48 56.32q1.024 13.312-1.024 15.872t-15.36 4.608q-18.432 4.096-38.4 12.8t-23.040 8.704-27.648 19.456q-25.6 19.456-36.352 24.064t-34.304 2.56q-63.488-2.048-83.968-33.792-11.264-17.408-18.944-47.104t-18.944-98.304q-7.168-44.032-20.48-76.8-3.072-6.144-4.096-12.288t-8.192-27.648q-10.24-30.72-19.456-70.144t-9.216-51.712q0-16.384 13.312-43.008 8.192-17.408 9.216-24.576t-2.048-19.456q-5.12-17.408-19.456-36.864-10.24-15.36-14.336-17.92t-15.36-0.512q-14.336 2.048-34.816 11.776t-32.768 20.992q-12.288 10.24-27.136 39.424t-17.92 48.64-16.384 61.44q-29.696 92.16-29.696 117.76-1.024 19.456-11.264 50.176-22.528 61.44-27.648 81.92t-4.096 44.032q1.024 33.792 7.168 31.744 4.096-2.048 6.144-27.648 3.072-29.696 12.288-47.104 15.36-25.6 36.352-52.736t35.328-38.4q20.48-16.384 36.864-41.984 35.84-53.248 39.936-53.248 1.024 0 3.072 4.096 4.096 7.168 9.728 25.088t27.136 59.904 36.864 80.896q45.056 109.568 65.536 129.024 12.288 11.264 51.712 31.744t50.688 30.72q8.192 8.192 27.136 15.872t30.208 7.68q8.192 0 8.192 3.584t24.576 4.608 29.184 5.12 27.648 6.656 25.088 8.704 17.408 6.144 17.408 5.12zM158.72 710.144q28.672 12.288 82.944-6.144 36.864-13.312 44.032-13.312t38.912-29.696q20.48-19.456 28.16-29.696t11.776-25.6q6.144-17.408 6.144-23.040t-5.12-15.872q-18.432-32.768-86.016-33.792-32.768 0-44.032-6.144t-18.432-27.648q-9.216-23.552-23.552-42.496t-24.576-18.944-10.752 3.584 8.704 14.848q19.456 25.6 19.456 86.016t-20.48 79.872q-18.432 17.408-22.528 51.2-2.048 17.408 1.024 24.576t14.336 12.288z" />
<glyph unicode="&#x8bb2;" glyph-name="uni8BB2" d="M211.968 718.336q19.456 4.096 66.048 2.048t59.904-7.168q16.384-7.168 25.6-27.648 15.36-36.864 4.096-58.368-6.144-11.264-38.912-16.384t-62.464 1.024q-11.264 2.048-20.48-1.536t-35.84-17.92q-38.912-22.528-43.008-22.528-15.36 0 15.36 23.552 16.384 11.264 26.624 20.992t13.824 15.872-0.512 9.216q-5.12 5.12-28.672 22.528-16.384 13.312-27.136 29.184t-6.656 23.040q4.096 5.12 19.456 2.56t32.768 1.536zM729.088 776.704q27.648 7.168 66.56-12.288 29.696-15.36 36.864-25.6 8.192-13.312 5.12-122.88-1.024-29.696 7.168-35.328t14.336-22.016q4.096-12.288 2.56-17.408t-13.824-20.48q-26.624-32.768-27.648-113.664 0-26.624 8.192-35.84t55.296-29.696q39.936-17.408 48.64-24.064t11.776-23.040q6.144-27.648-7.168-35.328t-66.56-7.68q-24.576 0-30.72-1.536t-9.216-8.704q-4.096-12.288-1.536-119.296t8.704-175.616q7.168-79.872 2.048-90.112-5.12-11.264-30.208-20.48t-47.616-7.168q-24.576 2.048-34.304 14.848t-16.896 51.712l-8.192 39.936 14.336 28.672 14.336 27.648 2.048 116.736q2.048 84.992 1.024 100.864t-7.168 15.872q-17.408 0-90.112-27.648l-40.96-16.384-9.216-24.576q-9.216-25.6-16.384-62.464-7.168-33.792-13.312-47.104t-17.408-16.384q-8.192-2.048-35.328 0t-32.256 5.12q-3.072 2.048-8.192 32.768-7.168 44.032-10.752 51.2t-18.944 9.216q-22.528 3.072-31.232 11.776t-10.752 32.256q-3.072 26.624-7.168 26.624t-15.36-29.696q-19.456-46.080-71.68-101.376-21.504-22.528-28.16-34.304t-14.848-40.448q-6.144-23.552-12.288-37.888-5.12-9.216-7.68-11.264t-8.704 2.048q-8.192 4.096-18.432 2.048-12.288-3.072-20.992 3.072t-26.112 32.768q-20.48 31.744-20.992 46.592t18.944 38.4q18.432 22.528 28.672 30.72 19.456 15.36 24.576 57.344 2.048 26.624 25.088 139.264t17.408 116.224-67.072 6.656q-139.264 6.144-149.504 15.36-3.072 3.072-1.024 7.168t8.192 7.68 13.312 4.608q14.336 3.072 55.808 19.456t71.168 21.504q24.576 4.096 59.392 16.896t44.032 20.992q8.192 7.168 29.184 15.872t27.136 6.656q7.168-3.072 22.016-30.208t11.776-43.52-9.216-16.384-17.92-10.24-17.92-20.48q-7.168-15.36-31.232-134.656t-20.992-128.512q1.024-4.096 35.84 35.84 28.672 32.768 43.52 43.52t22.016 4.608q6.144-5.12 6.144-20.48 0-12.288 2.048-12.288 1.024 0 5.12 4.096 7.168 7.168 20.48 14.336 21.504 10.24 79.872 70.656 21.504 21.504 33.792 116.736 0 5.12 1.024 14.336 5.12 33.792 2.048 39.424t-22.528 6.656q-6.144 0-9.216 1.024-55.296 3.072-55.296 16.384 0 4.096 11.776 12.8t53.76 33.28q17.408 10.24 22.016 20.48t2.56 33.792q-1.024 16.384-3.584 23.040t-11.776 14.848-10.752 12.288 1.536 12.288q4.096 11.264 9.728 14.848t18.944 3.584q16.384 0 37.376-8.704t35.328-22.016q12.288-12.288 14.336-17.408t0-18.944-1.024-16.896 9.216-5.12q11.264-3.072 16.384 1.536t14.848 4.608 12.288 4.096 27.648 7.168 35.328 9.216q8.192 5.12 9.216 12.288t-1.024 37.888q-1.024 30.72-3.584 40.448t-13.824 25.088q-21.504 31.744-4.096 35.84zM738.304 519.68q0 6.144-54.272-6.144-58.368-13.312-58.368-21.504 0-4.096 10.752-13.312t23.040-15.36q10.24-5.12 13.824-5.12t11.776 6.144q10.24 7.168 31.744 29.696t21.504 25.6zM635.904 459.264q-19.456 16.384-23.552 13.312t-7.168-37.888l-3.072-32.768 12.288 8.192q13.312 8.192 22.528 14.336 12.288 8.192 12.288 15.872t-13.312 18.944zM738.304 439.296q0 22.016-3.072 22.016t-18.432-13.312l-15.36-12.288 15.36-9.216q15.36-9.216 18.432-9.216t3.072 22.016zM711.68 394.752q-23.552 22.528-27.648 22.528-8.192 0-37.888-24.576t-37.888-38.912q-8.192-13.312-15.36-38.912-4.096-16.384-4.096-20.992t4.096-6.656q5.12-2.048 67.584 13.312t68.608 21.504q5.12 4.096 5.12 26.624 0 16.384-3.072 23.040t-19.456 23.040zM486.912 243.712q12.8 9.728 10.752 18.944-1.024 7.168-12.288-3.072-3.072-2.048-9.216-7.168-17.408-17.408-10.24-18.432 8.192 0 20.992 9.728z" />
<glyph unicode="&#x957f;" glyph-name="uni957F" d="M450.56 777.728q11.264 11.264 18.432 14.336t18.432 3.072q25.6 0 35.328-15.36t0.512-38.912q-7.168-16.384-7.168-28.672v-13.312l18.432 10.24q17.408 10.24 27.648 15.872t32.768 31.232 30.208 25.6 20.992-11.776 27.648-25.088q13.312-12.288 30.72-40.448t17.408-37.888-18.432-28.16-30.72-20.48q-13.312-3.072-20.48-14.336t-14.848-19.968-7.68-11.776q0-4.096-19.456-8.704t-46.080-6.656q-33.792-2.048-43.52-6.144t-8.192-15.872 49.664-47.616q34.816-24.576 49.152-32.256t50.176-16.896q63.488-18.432 77.824-27.648t13.312-29.696q-1.024-19.456-11.776-29.696t-38.4-18.432q-31.744-9.216-57.344-17.408-26.624-8.192-52.736-15.36t-59.904-20.48q-22.528-8.192-28.672-12.8t-10.24-14.848q-4.096-15.36-1.536-34.816t2.56-90.112q1.024-66.56 5.12-67.584 1.024 0 5.12 1.024 33.792 10.24 73.728 41.984 45.056 36.864 70.144 46.592t64 5.632q63.488-7.168 111.616-55.296 40.96-40.96 40.96-83.968 0-14.336-8.192-27.648t-19.456-16.384q-13.312-3.072-16.384-2.048-5.12 1.024-37.888-7.168t-51.2-16.384q-95.232-37.888-109.568-33.792-8.192 2.048-32.768-19.968t-27.648-22.016q-11.264 0 18.432 31.744 34.816 36.864 67.584 80.384t47.104 71.168q4.096 8.192 2.048 11.264t-16.384 11.264q-9.216 5.12-21.504-2.048t-41.984-34.816q-83.968-78.848-166.912-95.232-23.552-5.12-25.088 0t-9.728 12.288q-19.456 20.48-22.016 40.96t6.656 86.016q11.264 72.704 11.264 106.496v33.792l-16.384-9.216q-16.384-9.216-33.792-22.528-24.576-19.456-66.048-48.128t-55.808-36.864q-30.72-16.384-56.32 5.12-13.312 11.264-16.896 11.264t-9.216 14.336-15.872 30.72q-8.192 13.312-9.216 31.232t6.144 24.064q5.12 5.12 10.24 24.576 5.12 18.432 17.408 38.4t48.128 68.096q37.888 50.176 52.736 74.24t48.64 66.048q54.272 68.608 74.752 96.256t33.792 54.272l17.408 34.816-4.096 30.72q-4.096 34.816-2.56 44.032t15.872 23.552zM435.2 519.68q-2.048 9.216-5.12 9.216t-36.864-18.432q-26.624-13.312-46.080-32.256t-55.296-65.024q-19.456-26.624-66.56-75.776-27.648-30.72-37.888-45.056t-15.36-28.672q-12.288-38.912 13.312-50.176 10.24-4.096 51.2 12.288 45.056 18.432 109.568 52.224t66.56 39.936q6.144 15.36 15.872 103.424t6.656 98.304zM611.328 394.752q3.072 3.072-50.176 55.296l-54.272 52.224v-43.008q0-44.032-6.656-74.752t-4.608-32.768q1.024-1.024 56.32 19.456t59.392 23.552z" />
</font>
</defs>
</svg>
