<?xml version="1.0" encoding="utf-8"?>
<!-- Generator: Adobe Illustrator 23.0.2, SVG Export Plug-In . SVG Version: 6.00 Build 0)  -->
<svg version="1.1" id="图层_1" xmlns="http://www.w3.org/2000/svg" xmlns:xlink="http://www.w3.org/1999/xlink" x="0px" y="0px"
	 viewBox="0 0 595.28 841.89" style="enable-background:new 0 0 595.28 841.89;" xml:space="preserve">
<style type="text/css">
	.st0{fill:#125ACE;}
	.st1{fill:#FFFFFF;}
	.st2{font-family:'PingFang-SC-Regular';}
	.st3{font-size:12px;}
	.st4{fill:none;}
	.st5{font-size:9.3652px;}
	.st6{fill:none;stroke:#125ACE;stroke-width:0.5;stroke-miterlimit:10;}
	.st7{font-size:10px;}
	.st8{fill:none;stroke:#125ACE;stroke-miterlimit:10;}
	.st9{fill:none;stroke:#125ACE;stroke-width:0.75;stroke-miterlimit:10;}
</style>
<path class="st0" d="M340.45,105.04h-87.2c-3.07,0-5.56-2.49-5.56-5.56v-18.2c0-3.07,2.49-5.56,5.56-5.56h87.2
	c3.07,0,5.56,2.49,5.56,5.56v18.2C346.02,102.55,343.53,105.04,340.45,105.04z"/>
<path class="st0" d="M327.77,184.95h-61.83c-3.07,0-5.56-2.49-5.56-5.56v-18.2c0-3.07,2.49-5.56,5.56-5.56h61.83
	c3.07,0,5.56,2.49,5.56,5.56v18.2C333.33,182.46,330.84,184.95,327.77,184.95z"/>
<text transform="matrix(1 0 0 1 266.851 94.2657)" class="st1 st2 st3">管理委员会</text>
<text transform="matrix(1 0 0 1 284.851 174.7314)" class="st1 st2 st3">院长</text>
<path class="st0" d="M337.62,582.2h-77.69c-3.07,0-5.56-2.49-5.56-5.56v-18.2c0-3.07,2.49-5.56,5.56-5.56h77.69
	c3.07,0,5.56,2.49,5.56,5.56v18.2C343.19,579.71,340.7,582.2,337.62,582.2z"/>
<text transform="matrix(1 0 0 1 274.78 571.425)" class="st1 st2 st3">平台支撑</text>
<rect x="75.73" y="629.2" class="st4" width="54.73" height="42.95"/>
<text transform="matrix(1 0 0 1 79.6851 637.2526)"><tspan x="0" y="0" class="st0 st2 st5">水文水资源</tspan><tspan x="0" y="11.24" class="st0 st2 st5">与水利工程</tspan><tspan x="0" y="22.48" class="st0 st2 st5">科学国家重</tspan><tspan x="4.68" y="33.71" class="st0 st2 st5">点实验室</tspan></text>
<rect x="167.65" y="634.34" class="st4" width="66.57" height="32.67"/>
<text transform="matrix(1 0 0 1 168.1606 642.3912)"><tspan x="0" y="0" class="st0 st2 st5">水资源高效利用</tspan><tspan x="0" y="11.24" class="st0 st2 st5">与工程安全国家</tspan><tspan x="4.68" y="22.48" class="st0 st2 st5">工程研究中心</tspan></text>
<rect x="269.18" y="635.3" class="st4" width="59.21" height="30.75"/>
<text transform="matrix(1 0 0 1 270.6846 643.3531)"><tspan x="0" y="0" class="st0 st2 st5">水科学水工程</tspan><tspan x="0" y="11.24" class="st0 st2 st5">国际联合研究</tspan><tspan x="18.73" y="22.48" class="st0 st2 st5">中心</tspan></text>
<rect x="365.65" y="634.03" class="st4" width="61.94" height="33.3"/>
<text transform="matrix(1 0 0 1 368.5264 642.0797)"><tspan x="0" y="0" class="st0 st2 st5">全球变化与水</tspan><tspan x="0" y="11.24" class="st0 st2 st5">循环国际联合</tspan><tspan x="14.05" y="22.48" class="st0 st2 st5">实验室</tspan></text>
<rect x="467.8" y="634.4" class="st4" width="53.33" height="32.54"/>
<text transform="matrix(1 0 0 1 471.0508 642.4557)"><tspan x="0" y="0" class="st0 st2 st5">水利部应对</tspan><tspan x="0" y="11.24" class="st0 st2 st5">气候变化研</tspan><tspan x="9.37" y="22.48" class="st0 st2 st5">究中心</tspan></text>
<line class="st6" x1="296.85" y1="105.04" x2="296.85" y2="159.45"/>
<line class="st6" x1="296.85" y1="132.49" x2="374.74" y2="132.49"/>
<line class="st6" x1="296.85" y1="204.3" x2="374.74" y2="204.3"/>
<path class="st0" d="M454.18,147.15h-77.69c-3.07,0-5.56-2.49-5.56-5.56v-18.2c0-3.07,2.49-5.56,5.56-5.56h77.69
	c3.07,0,5.56,2.49,5.56,5.56v18.2C459.74,144.66,457.25,147.15,454.18,147.15z"/>
<path class="st0" d="M454.18,218.97h-77.69c-3.07,0-5.56-2.49-5.56-5.56v-18.2c0-3.07,2.49-5.56,5.56-5.56h77.69
	c3.07,0,5.56,2.49,5.56,5.56v18.2C459.74,216.48,457.25,218.97,454.18,218.97z"/>
<text transform="matrix(1 0 0 1 385.3343 136.3768)" class="st1 st2 st3">咨询委员会</text>
<text transform="matrix(1 0 0 1 385.3347 208.1937)" class="st1 st2 st3">学术委员会</text>
<line class="st6" x1="296.85" y1="184.95" x2="296.85" y2="285.22"/>
<text transform="matrix(1 0 0 1 170.9237 316.5476)" class="st0 st2 st7">综合部</text>
<text transform="matrix(1 0 0 1 281.8513 316.5475)" class="st0 st2 st7">技术部</text>
<text transform="matrix(1 0 0 1 380.7537 316.5479)" class="st0 st2 st7">合作交流部</text>
<path class="st0" d="M335.69,252.99h-77.69c-3.07,0-5.56-2.49-5.56-5.56v-18.2c0-3.07,2.49-5.56,5.56-5.56h77.69
	c3.07,0,5.56,2.49,5.56,5.56v18.2C341.26,250.5,338.77,252.99,335.69,252.99z"/>
<path class="st8" d="M335.69,328.16h-77.69c-3.07,0-5.56-2.49-5.56-5.56v-18.2c0-3.07,2.49-5.56,5.56-5.56h77.69
	c3.07,0,5.56,2.49,5.56,5.56v18.2C341.26,325.67,338.77,328.16,335.69,328.16z"/>
<path class="st8" d="M224.77,328.16h-77.69c-3.07,0-5.56-2.49-5.56-5.56v-18.2c0-3.07,2.49-5.56,5.56-5.56h77.69
	c3.07,0,5.56,2.49,5.56,5.56v18.2C230.33,325.67,227.84,328.16,224.77,328.16z"/>
<path class="st8" d="M444.6,328.16h-77.69c-3.07,0-5.56-2.49-5.56-5.56v-18.2c0-3.07,2.49-5.56,5.56-5.56h77.69
	c3.07,0,5.56,2.49,5.56,5.56v18.2C450.16,325.67,447.67,328.16,444.6,328.16z"/>
<text transform="matrix(1 0 0 1 272.851 241.9886)" class="st1 st2 st3">管理团队</text>
<polyline class="st6" points="102.45,621.64 102.45,600.55 494.46,600.55 494.46,621.64 "/>
<g>
	<g>
		<line class="st6" x1="298.46" y1="558.86" x2="298.46" y2="522.89"/>
		<g>
			<polygon class="st0" points="302.55,526.21 301.82,526.89 298.46,523.28 295.1,526.89 294.37,526.21 298.46,521.81 			"/>
		</g>
	</g>
</g>
<line class="st6" x1="200.94" y1="600.55" x2="200.94" y2="621.94"/>
<line class="st6" x1="298.78" y1="582.2" x2="298.78" y2="621.94"/>
<line class="st6" x1="396.62" y1="600.55" x2="396.62" y2="621.94"/>
<path class="st9" d="M134.53,679H70.37c-5.08,0-9.19-4.12-9.19-9.2v-38.26c0-5.08,4.12-9.2,9.19-9.2h64.15
	c5.08,0,9.19,4.12,9.19,9.2v38.26C143.72,674.88,139.61,679,134.53,679z"/>
<path class="st9" d="M232.53,679h-64.15c-5.08,0-9.19-4.12-9.19-9.2v-38.26c0-5.08,4.12-9.2,9.19-9.2h64.15
	c5.08,0,9.19,4.12,9.19,9.2v38.26C241.73,674.88,237.61,679,232.53,679z"/>
<path class="st9" d="M330.54,679h-64.15c-5.08,0-9.19-4.12-9.19-9.2v-38.26c0-5.08,4.12-9.2,9.19-9.2h64.15
	c5.08,0,9.19,4.12,9.19,9.2v38.26C339.73,674.88,335.61,679,330.54,679z"/>
<path class="st9" d="M428.54,679h-64.15c-5.08,0-9.19-4.12-9.19-9.2v-38.26c0-5.08,4.12-9.2,9.19-9.2h64.15
	c5.08,0,9.19,4.12,9.19,9.2v38.26C437.73,674.88,433.62,679,428.54,679z"/>
<path class="st9" d="M526.54,679h-64.15c-5.08,0-9.19-4.12-9.19-9.2v-38.26c0-5.08,4.12-9.2,9.19-9.2h64.15
	c5.08,0,9.19,4.12,9.19,9.2v38.26C535.74,674.88,531.62,679,526.54,679z"/>
<polyline class="st6" points="185.72,298.83 185.72,278.69 407.99,278.69 407.99,298.83 "/>
<line class="st6" x1="296.85" y1="262.6" x2="296.85" y2="298.83"/>
<line class="st6" x1="296.85" y1="376.43" x2="296.85" y2="341.77"/>
<polyline class="st6" points="407.99,328.16 407.99,348.29 185.72,348.29 185.72,328.16 "/>
<line class="st6" x1="296.85" y1="364.38" x2="296.85" y2="328.16"/>
<path class="st0" d="M336.48,405.76H258.8c-3.07,0-5.56-2.49-5.56-5.56V382c0-3.07,2.49-5.56,5.56-5.56h77.69
	c3.07,0,5.56,2.49,5.56,5.56v18.2C342.05,403.27,339.55,405.76,336.48,405.76z"/>
<text transform="matrix(1 0 0 1 273.6374 394.9857)" class="st1 st2 st3">科研团队</text>
<text transform="matrix(1 0 0 1 157.251 458.5865)"><tspan x="0" y="0" class="st0 st2 st7">水资源可</tspan><tspan x="0" y="12" class="st0 st2 st7">持续利用</tspan><tspan x="0" y="24" class="st0 st2 st7">研究中心</tspan></text>
<text transform="matrix(1 0 0 1 242.5092 458.5866)"><tspan x="0" y="0" class="st0 st2 st7">水工程</tspan><tspan x="-5" y="12" class="st0 st2 st7">技术研究</tspan><tspan x="5" y="24" class="st0 st2 st7">中心</tspan></text>
<text transform="matrix(1 0 0 1 312.7671 458.5872)"><tspan x="0" y="0" class="st0 st2 st7">岸线保护与</tspan><tspan x="5" y="12" class="st0 st2 st7">绿色航道</tspan><tspan x="5" y="24" class="st0 st2 st7">研究中心</tspan></text>
<g>
	<text transform="matrix(1 0 0 1 398.0248 464.5864)"><tspan x="0" y="0" class="st0 st2 st7">智慧水利</tspan><tspan x="0" y="12" class="st0 st2 st7">研究中心</tspan></text>
</g>
<g>
	<text transform="matrix(1 0 0 1 478.2816 458.5868)"><tspan x="0" y="0" class="st0 st2 st7">绿色发展</tspan><tspan x="0" y="12" class="st0 st2 st7">战略研究</tspan><tspan x="10" y="24" class="st0 st2 st7">中心</tspan></text>
</g>
<text transform="matrix(1 0 0 1 76.9939 458.5869)"><tspan x="0" y="0" class="st0 st2 st7">水生态与</tspan><tspan x="0" y="12" class="st0 st2 st7">环境研究</tspan><tspan x="10" y="24" class="st0 st2 st7">中心</tspan></text>
<path class="st8" d="M120.96,497.56H73.03c-5.08,0-9.19-4.12-9.19-9.19V446.7c0-5.08,4.12-9.19,9.19-9.19h47.93
	c5.08,0,9.19,4.12,9.19,9.19v41.67C130.15,493.44,126.04,497.56,120.96,497.56z"/>
<path class="st8" d="M201.22,497.56h-47.93c-5.08,0-9.19-4.12-9.19-9.19V446.7c0-5.08,4.12-9.19,9.19-9.19h47.93
	c5.08,0,9.19,4.12,9.19,9.19v41.67C210.41,493.44,206.29,497.56,201.22,497.56z"/>
<path class="st8" d="M281.47,497.56h-47.93c-5.08,0-9.19-4.12-9.19-9.19V446.7c0-5.08,4.12-9.19,9.19-9.19h47.93
	c5.08,0,9.19,4.12,9.19,9.19v41.67C290.67,493.44,286.55,497.56,281.47,497.56z"/>
<path class="st8" d="M361.73,497.56H313.8c-5.08,0-9.19-4.12-9.19-9.19V446.7c0-5.08,4.12-9.19,9.19-9.19h47.93
	c5.08,0,9.19,4.12,9.19,9.19v41.67C370.93,493.44,366.81,497.56,361.73,497.56z"/>
<path class="st8" d="M441.99,497.56h-47.93c-5.08,0-9.19-4.12-9.19-9.19V446.7c0-5.08,4.12-9.19,9.19-9.19h47.93
	c5.08,0,9.19,4.12,9.19,9.19v41.67C451.18,493.44,447.07,497.56,441.99,497.56z"/>
<path class="st8" d="M522.25,497.56h-47.93c-5.08,0-9.19-4.12-9.19-9.19V446.7c0-5.08,4.12-9.19,9.19-9.19h47.93
	c5.08,0,9.2,4.12,9.2,9.19v41.67C531.44,493.44,527.33,497.56,522.25,497.56z"/>
<polyline class="st6" points="97.81,437.5 97.81,419.86 498.28,419.86 498.28,437.5 "/>
<line class="st6" x1="297.64" y1="405.76" x2="297.64" y2="419.75"/>
<line class="st6" x1="177.25" y1="419.86" x2="177.25" y2="437.5"/>
<line class="st6" x1="257.51" y1="419.86" x2="257.51" y2="437.5"/>
<line class="st6" x1="337.77" y1="419.86" x2="337.77" y2="437.5"/>
<line class="st6" x1="418.02" y1="419.86" x2="418.02" y2="437.5"/>
<polyline class="st6" points="498.28,497.56 498.28,515.2 97.81,515.2 97.81,497.56 "/>
<line class="st6" x1="418.84" y1="515.2" x2="418.84" y2="497.56"/>
<line class="st6" x1="338.59" y1="515.2" x2="338.59" y2="497.56"/>
<line class="st6" x1="258.33" y1="515.2" x2="258.33" y2="497.56"/>
<line class="st6" x1="178.07" y1="515.2" x2="178.07" y2="497.56"/>
</svg>
