<svg xmlns="http://www.w3.org/2000/svg" xmlns:xlink="http://www.w3.org/1999/xlink" viewBox="0 0 595.28 841.89" xmlns:v="https://vecta.io/nano"><style><![CDATA[.K{font-family:PingFang-SC-Regular}.L{fill:#125ace}.M{font-size:10px}.N{font-size:9.365px}.O{stroke-miterlimit:10}.P{fill:#fff}.Q{font-size:12px}.R{fill:none}.S{stroke:#125ace}.T{stroke-width:.5}]]></style><path d="M340.45 105.04h-87.2a5.56 5.56 0 0 1-5.56-5.56v-18.2a5.56 5.56 0 0 1 5.56-5.56h87.2a5.56 5.56 0 0 1 5.56 5.56v18.2a5.55 5.55 0 0 1-5.56 5.56zm-12.68 79.9h-61.83a5.56 5.56 0 0 1-5.56-5.56v-18.2a5.56 5.56 0 0 1 5.56-5.56h61.83a5.56 5.56 0 0 1 5.56 5.56v18.2a5.56 5.56 0 0 1-5.56 5.56z" class="L"/><text transform="translate(266.851 94.266)" class="K P Q">管理委员会</text><text transform="translate(284.851 174.731)" class="K P Q">院长</text><path d="M337.62 582.2h-77.7a5.56 5.56 0 0 1-5.56-5.56v-18.2a5.56 5.56 0 0 1 5.56-5.56h77.7a5.56 5.56 0 0 1 5.56 5.56v18.2a5.55 5.55 0 0 1-5.56 5.56z" class="L"/><text transform="translate(274.78 571.425)" class="K P Q">平台支撑</text><text><tspan x="79.685" y="637.253" class="K L N">水文水资源</tspan><tspan y="648.493" x="79.685" class="K L N">与水利工程</tspan><tspan y="659.733" x="79.685" class="K L N">科学国家重</tspan><tspan x="84.365" y="670.963" class="K L N">点实验室</tspan><tspan x="168.161" y="642.391" class="K L N">水资源高效利用</tspan><tspan y="653.631" x="168.161" class="K L N">与工程安全国家</tspan><tspan x="172.841" y="664.871" class="K L N">工程研究中心</tspan><tspan x="270.685" y="643.353" class="K L N">水科学水工程</tspan><tspan y="654.593" x="270.685" class="K L N">国际联合研究</tspan><tspan x="289.415" y="665.833" class="K L N">中心</tspan><tspan x="368.526" y="642.08" class="K L N">全球变化与水</tspan><tspan y="653.32" x="368.526" class="K L N">循环国际联合</tspan><tspan x="382.576" y="664.56" class="K L N">实验室</tspan><tspan x="471.051" y="642.456" class="K L N">水利部应对</tspan><tspan y="653.696" x="471.051" class="K L N">气候变化研</tspan><tspan x="480.421" y="664.936" class="K L N">究中心</tspan></text><path d="M296.85 105.04v54.4m0-26.94h77.9m-77.9 71.8h77.9" class="O R S T"/><g class="L"><use xlink:href="#B"/><use xlink:href="#B" y="71.82"/></g><text transform="translate(385.334 136.377)" class="K P Q">咨询委员会</text><text transform="translate(385.335 208.194)" class="K P Q">学术委员会</text><path d="M296.85 184.95v100.27" class="O R S T"/><text transform="translate(170.924 316.548)" class="K L M">综合部</text><text transform="translate(281.851 316.548)" class="K L M">技术部</text><text transform="translate(380.754 316.548)" class="K L M">合作交流部</text><use xlink:href="#C" class="L"/><g class="O R S"><use xlink:href="#C" y="75.16"/><use xlink:href="#B" x="-229.41" y="181.01"/><use xlink:href="#B" x="-9.58" y="181.01"/></g><text transform="translate(272.851 241.989)" class="K P Q">管理团队</text><path d="M102.45 621.64v-21.1h392v21.1m-196-62.78V522.9" class="O R S T"/><path d="M302.55 526.2l-.73.68-3.36-3.6-3.36 3.6-.73-.68 4.1-4.4z" class="L"/><g class="R S O"><path d="M200.94 600.55v21.4m97.84-39.75v39.74m97.84-21.4v21.4" class="T"/><path d="M134.53 679H70.37c-5.08 0-9.2-4.12-9.2-9.2v-38.26c0-5.08 4.12-9.2 9.2-9.2h64.15c5.08 0 9.2 4.12 9.2 9.2v38.26a9.18 9.18 0 0 1-9.18 9.2zm98 0h-64.15c-5.08 0-9.2-4.12-9.2-9.2v-38.26c0-5.08 4.12-9.2 9.2-9.2h64.15c5.08 0 9.2 4.12 9.2 9.2v38.26a9.19 9.19 0 0 1-9.19 9.2zm98 0H266.4c-5.08 0-9.2-4.12-9.2-9.2v-38.26c0-5.08 4.12-9.2 9.2-9.2h64.15c5.08 0 9.2 4.12 9.2 9.2v38.26c0 5.08-4.12 9.2-9.2 9.2zm98 0H364.4c-5.08 0-9.2-4.12-9.2-9.2v-38.26c0-5.08 4.12-9.2 9.2-9.2h64.15c5.08 0 9.2 4.12 9.2 9.2v38.26a9.19 9.19 0 0 1-9.2 9.2zm98 0H462.4c-5.08 0-9.2-4.12-9.2-9.2v-38.26c0-5.08 4.12-9.2 9.2-9.2h64.15c5.08 0 9.2 4.12 9.2 9.2v38.26a9.19 9.19 0 0 1-9.19 9.2z" stroke-width=".75"/><g class="T"><path d="M185.72 298.83V278.7H408v20.14"/><path d="M296.85 262.6v36.23m0 77.6v-34.66"/><path d="M408 328.16v20.13H185.72v-20.13"/><path d="M296.85 364.38v-36.22"/></g></g><path d="M336.48 405.76H258.8a5.56 5.56 0 0 1-5.56-5.56V382a5.56 5.56 0 0 1 5.56-5.56h77.7a5.56 5.56 0 0 1 5.56 5.56v18.2a5.57 5.57 0 0 1-5.57 5.56z" class="L"/><text transform="translate(273.637 394.986)" class="K P Q">科研团队</text><text><tspan x="157.251" y="458.587" class="K L M">水资源可</tspan><tspan y="470.587" x="157.251" class="K L M">持续利用</tspan><tspan y="482.587" x="157.251" class="K L M">研究中心</tspan><tspan x="242.509" y="458.587" class="K L M">水工程</tspan><tspan x="237.509" y="470.587" class="K L M">技术研究</tspan><tspan x="247.509" y="482.587" class="K L M">中心</tspan><tspan x="312.767" y="458.587" class="K L M">岸线保护与</tspan><tspan x="317.767" y="470.587" class="K L M">绿色航道</tspan><tspan x="317.767" y="482.587" class="K L M">研究中心</tspan><tspan x="398.025" y="464.586" class="K L M">智慧水利</tspan><tspan y="476.586" x="398.025" class="K L M">研究中心</tspan><tspan x="478.282" y="458.587" class="K L M">绿色发展</tspan><tspan y="470.587" x="478.282" class="K L M">战略研究</tspan><tspan x="488.282" y="482.587" class="K L M">中心</tspan><tspan x="76.994" y="458.587" class="K L M">水生态与</tspan><tspan y="470.587" x="76.994" class="K L M">环境研究</tspan><tspan x="86.994" y="482.587" class="K L M">中心</tspan></text><g class="O R S"><path d="M120.96 497.56H73.03c-5.08 0-9.2-4.12-9.2-9.2V446.7c0-5.08 4.12-9.2 9.2-9.2h47.93c5.08 0 9.2 4.12 9.2 9.2v41.67c0 5.07-4.1 9.2-9.2 9.2zm80.26 0H153.3c-5.08 0-9.2-4.12-9.2-9.2V446.7c0-5.08 4.12-9.2 9.2-9.2h47.93c5.08 0 9.2 4.12 9.2 9.2v41.67a9.2 9.2 0 0 1-9.19 9.19zm80.25 0h-47.93c-5.08 0-9.2-4.12-9.2-9.2V446.7c0-5.08 4.12-9.2 9.2-9.2h47.93c5.08 0 9.2 4.12 9.2 9.2v41.67a9.19 9.19 0 0 1-9.2 9.2zm80.26 0H313.8c-5.08 0-9.2-4.12-9.2-9.2V446.7c0-5.08 4.12-9.2 9.2-9.2h47.93c5.08 0 9.2 4.12 9.2 9.2v41.67a9.19 9.19 0 0 1-9.2 9.2zm80.27 0h-47.93c-5.08 0-9.2-4.12-9.2-9.2V446.7c0-5.08 4.12-9.2 9.2-9.2H442c5.08 0 9.2 4.12 9.2 9.2v41.67c0 5.07-4.1 9.2-9.2 9.2zm80.25 0h-47.93c-5.08 0-9.2-4.12-9.2-9.2V446.7c0-5.08 4.12-9.2 9.2-9.2h47.93c5.08 0 9.2 4.12 9.2 9.2v41.67c-.01 5.07-4.12 9.2-9.2 9.2z"/><g class="T"><path d="M97.8 437.5v-17.64h400.47v17.64m-200.63-31.74v14m-120.4.1v17.64m80.25-17.64v17.64"/><path d="M337.77 419.86v17.64m80.25-17.64v17.64m80.26 60.06v17.64H97.8v-17.64"/><path d="M418.84 515.2v-17.64M338.6 515.2v-17.64m-80.27 17.64v-17.64m-80.26 17.64v-17.64"/></g></g><defs ><path id="B" d="M454.18 147.15h-77.7a5.56 5.56 0 0 1-5.56-5.56v-18.2a5.56 5.56 0 0 1 5.56-5.56h77.7a5.56 5.56 0 0 1 5.56 5.56v18.2a5.56 5.56 0 0 1-5.56 5.56z"/><path id="C" d="M335.7 253H258a5.56 5.56 0 0 1-5.56-5.56v-18.2a5.56 5.56 0 0 1 5.56-5.56h77.7a5.56 5.56 0 0 1 5.56 5.56v18.2a5.55 5.55 0 0 1-5.56 5.56z"/></defs></svg>
