<svg xmlns="http://www.w3.org/2000/svg" xmlns:xlink="http://www.w3.org/1999/xlink" width="600" height="700">
 <style>
  <![CDATA[.K{font-family:PingFang-SC-Regular}.L{fill:#125ace}.M{font-size:10px}.N{font-size:9.365px}.O{stroke-miterlimit:10}.P{fill:#fff}.Q{font-size:12px}.R{fill:none}.S{stroke:#125ace}.T{stroke-width:.5}]]>
 </style>
 <defs>
  <path d="m454.179993,147.149994l-77.699982,0a5.56,5.56 0 0 1 -5.559998,-5.559998l0,-18.200005a5.56,5.56 0 0 1 5.559998,-5.560005l77.699982,0a5.56,5.56 0 0 1 5.559998,5.560005l0,18.200005a5.56,5.56 0 0 1 -5.559998,5.559998z" id="B"/>
  <path d="m335.700012,253l-77.700012,0a5.56,5.56 0 0 1 -5.559998,-5.559998l0,-18.199997a5.56,5.56 0 0 1 5.559998,-5.560013l77.700012,0a5.56,5.56 0 0 1 5.559998,5.560013l0,18.199997a5.55,5.55 0 0 1 -5.559998,5.559998z" id="C"/>
 </defs>
 <g>
  <title>background</title>
  <rect fill="none" id="canvas_background" height="702" width="602" y="-1" x="-1"/>
 </g>
 <g>
  <title>Layer 1</title>
  <path id="svg_1" class="L" d="m340.450012,105.040001l-87.199997,0a5.56,5.56 0 0 1 -5.559998,-5.559998l0,-18.200005a5.56,5.56 0 0 1 5.559998,-5.559998l87.199997,0a5.56,5.56 0 0 1 5.559998,5.559998l0,18.200005a5.55,5.55 0 0 1 -5.559998,5.559998zm-12.679993,79.900002l-61.830017,0a5.56,5.56 0 0 1 -5.559998,-5.559998l0,-18.200012a5.56,5.56 0 0 1 5.559998,-5.559998l61.830017,0a5.56,5.56 0 0 1 5.559998,5.559998l0,18.200012a5.56,5.56 0 0 1 -5.559998,5.559998z"/>
  <text id="svg_2" x="266.851013" y="94.265999" class="K P Q">管理委员会</text>
  <text id="svg_3" x="284.851013" y="174.731003" class="K P Q">院长</text>
  <path id="svg_4" class="L" d="m337.619995,582.200012l-77.699982,0a5.56,5.56 0 0 1 -5.560013,-5.559998l0,-18.200012a5.56,5.56 0 0 1 5.560013,-5.559998l77.699982,0a5.56,5.56 0 0 1 5.559998,5.559998l0,18.200012a5.55,5.55 0 0 1 -5.559998,5.559998z"/>
  <text id="svg_5" x="274.779999" y="571.424988" class="K P Q">平台支撑</text>
  <text id="svg_6">
   <tspan id="svg_7" class="K L N" y="637.253" x="79.685">水文水资源</tspan>
   <tspan id="svg_8" class="K L N" x="79.685" y="648.493">与水利工程</tspan>
   <tspan id="svg_9" class="K L N" x="79.685" y="659.733">科学国家重</tspan>
   <tspan id="svg_10" class="K L N" y="670.963" x="84.365">点实验室</tspan>
   <tspan id="svg_11" class="K L N" y="642.391" x="168.161">水资源高效利用</tspan>
   <tspan id="svg_12" class="K L N" x="168.161" y="653.631">与工程安全国家</tspan>
   <tspan id="svg_13" class="K L N" y="664.871" x="172.841">工程研究中心</tspan>
   <tspan id="svg_14" class="K L N" y="643.353" x="270.685">水科学水工程</tspan>
   <tspan id="svg_15" class="K L N" x="270.685" y="654.593">国际联合研究</tspan>
   <tspan id="svg_16" class="K L N" y="665.833" x="289.415">中心</tspan>
   <tspan id="svg_17" class="K L N" y="642.08" x="368.526">全球变化与水</tspan>
   <tspan id="svg_18" class="K L N" x="368.526" y="653.32">循环国际联合</tspan>
   <tspan id="svg_19" class="K L N" y="664.56" x="382.576">实验室</tspan>
   <tspan id="svg_20" class="K L N" y="642.456" x="471.051">水利部应对</tspan>
   <tspan id="svg_21" class="K L N" x="471.051" y="653.696">气候变化研</tspan>
   <tspan id="svg_22" class="K L N" y="664.936" x="480.421">究中心</tspan>
  </text>
  <path id="svg_23" class="O R S T" d="m296.850006,105.040001l0,54.400002m0,-26.940002l77.899994,0m-77.899994,71.800003l77.899994,0"/>
  <g id="svg_24" class="L">
   <use id="svg_25" xlink:href="#B"/>
   <use id="svg_26" y="71.82" xlink:href="#B"/>
  </g>
  <text id="svg_27" x="385.334015" y="136.376999" class="K P Q">咨询委员会</text>
  <text id="svg_28" x="385.334991" y="208.194" class="K P Q">学术委员会</text>
  <path id="svg_29" class="O R S T" d="m296.850006,184.949997l0,100.270004"/>
  <text id="svg_30" x="170.923996" y="316.548004" class="K L M">综合部</text>
  <text id="svg_31" x="281.851013" y="316.548004" class="K L M">技术部</text>
  <text id="svg_32" x="380.753998" y="316.548004" class="K L M">合作交流部</text>
  <use id="svg_33" class="L" xlink:href="#C"/>
  <g id="svg_34" class="O R S">
   <use id="svg_35" y="75.16" xlink:href="#C"/>
   <use id="svg_36" y="181.01" x="-229.41" xlink:href="#B"/>
   <use id="svg_37" y="181.01" x="-9.58" xlink:href="#B"/>
  </g>
  <text id="svg_38" x="272.851013" y="241.988998" class="K P Q">管理团队</text>
  <path id="svg_39" class="O R S T" d="m102.449997,621.640015l0,-21.099976l392.000015,0l0,21.099976m-196,-62.779968l0,-35.960022"/>
  <path id="svg_40" class="L" d="m302.549988,526.200012l-0.730011,0.679993l-3.359985,-3.599976l-3.360016,3.599976l-0.72998,-0.679993l4.100006,-4.400024l4.079987,4.400024z"/>
  <g id="svg_41" class="R S O">
   <path id="svg_42" class="T" d="m200.940002,600.549988l0,21.400024m97.839996,-39.75l0,39.73999m97.839996,-21.400024l0,21.400024"/>
   <path id="svg_43" stroke-width="0.75" d="m134.529999,679l-64.159996,0c-5.080002,0 -9.200005,-4.119995 -9.200005,-9.200012l0,-38.26001c0,-5.079956 4.120003,-9.199951 9.200005,-9.199951l64.150002,0c5.080002,0 9.199997,4.119995 9.199997,9.199951l0,38.26001a9.18,9.18 0 0 1 -9.180008,9.200012l-0.009995,0zm98.009995,0l-64.149994,0c-5.080002,0 -9.199997,-4.119995 -9.199997,-9.200012l0,-38.26001c0,-5.079956 4.119995,-9.199951 9.199997,-9.199951l64.149994,0c5.080002,0 9.200012,4.119995 9.200012,9.199951l0,38.26001a9.19,9.19 0 0 1 -9.190002,9.200012l-0.01001,0zm98.000015,0l-64.140015,0c-5.080017,0 -9.200012,-4.119995 -9.200012,-9.200012l0,-38.26001c0,-5.079956 4.119995,-9.199951 9.200012,-9.199951l64.149994,0c5.080017,0 9.200012,4.119995 9.200012,9.199951l0,38.26001c0,5.080017 -4.119995,9.200012 -9.200012,9.200012l-0.009979,0zm98,0l-64.140015,0c-5.080017,0 -9.200012,-4.119995 -9.200012,-9.200012l0,-38.26001c0,-5.079956 4.119995,-9.199951 9.200012,-9.199951l64.149994,0c5.080017,0 9.200012,4.119995 9.200012,9.199951l0,38.26001a9.19,9.19 0 0 1 -9.200012,9.200012l-0.009979,0zm97.999969,0l-64.139984,0c-5.080017,0 -9.200012,-4.119995 -9.200012,-9.200012l0,-38.26001c0,-5.079956 4.119995,-9.199951 9.200012,-9.199951l64.149994,0c5.080017,0 9.200012,4.119995 9.200012,9.199951l0,38.26001a9.19,9.19 0 0 1 -9.190002,9.200012l-0.02002,0z"/>
   <g id="svg_44" class="T">
    <path id="svg_45" d="m185.720001,298.829987l0,-20.129974l222.279999,0l0,20.139984"/>
    <path id="svg_46" d="m296.850006,262.600006l0,36.230011m0,77.599976l0,-34.660004"/>
    <path id="svg_47" d="m408,328.160004l0,20.130005l-222.279999,0l0,-20.130005"/>
    <path id="svg_48" d="m296.850006,364.380005l0,-36.220001"/>
   </g>
  </g>
  <path id="svg_49" class="L" d="m336.480011,405.76001l-77.680023,0a5.56,5.56 0 0 1 -5.559998,-5.559998l0,-18.200012a5.56,5.56 0 0 1 5.559998,-5.559998l77.699982,0a5.56,5.56 0 0 1 5.559998,5.559998l0,18.200012a5.57,5.57 0 0 1 -5.569977,5.559998l-0.009979,0z"/>
  <text id="svg_50" x="273.636993" y="394.985992" class="K P Q">科研团队</text>
  <text id="svg_51">
   <tspan id="svg_52" class="K L M" y="458.587" x="157.251">水资源可</tspan>
   <tspan id="svg_53" class="K L M" x="157.251" y="470.587">持续利用</tspan>
   <tspan id="svg_54" class="K L M" x="157.251" y="482.587">研究中心</tspan>
   <tspan id="svg_55" class="K L M" y="458.587" x="242.509">水工程</tspan>
   <tspan id="svg_56" class="K L M" y="470.587" x="237.509">技术研究</tspan>
   <tspan id="svg_57" class="K L M" y="482.587" x="247.509">中心</tspan>
   <tspan id="svg_58" class="K L M" y="458.587" x="312.767">岸线保护与</tspan>
   <tspan id="svg_59" class="K L M" y="470.587" x="317.767">绿色航道</tspan>
   <tspan id="svg_60" class="K L M" y="482.587" x="317.767">研究中心</tspan>
   <tspan id="svg_61" class="K L M" y="464.586" x="398.025">智慧水利</tspan>
   <tspan id="svg_62" class="K L M" x="398.025" y="476.586">研究中心</tspan>
   <tspan id="svg_63" class="K L M" y="458.587" x="478.282">绿色发展</tspan>
   <tspan id="svg_64" class="K L M" x="478.282" y="470.587">战略研究</tspan>
   <tspan id="svg_65" class="K L M" y="482.587" x="488.282">中心</tspan>
   <tspan id="svg_66" class="K L M" y="458.587" x="76.994">水生态与</tspan>
   <tspan id="svg_67" class="K L M" x="76.994" y="470.587">环境研究</tspan>
   <tspan id="svg_68" class="K L M" y="482.587" x="86.994">中心</tspan>
  </text>
  <g id="svg_69" class="O R S">
   <path id="svg_70" d="m120.959999,497.559998l-47.93,0c-5.080002,0 -9.199997,-4.119995 -9.199997,-9.200012l0,-41.659973c0,-5.080017 4.119995,-9.200012 9.199997,-9.200012l47.93,0c5.080002,0 9.200005,4.119995 9.200005,9.200012l0,41.669983c0,5.070007 -4.100006,9.200012 -9.200005,9.200012l0,-0.01001zm80.260002,0.01001l-47.919998,0c-5.080002,0 -9.199997,-4.119995 -9.199997,-9.200012l0,-41.669983c0,-5.080017 4.119995,-9.200012 9.199997,-9.200012l47.929993,0c5.080002,0 9.199997,4.119995 9.199997,9.200012l0,41.669983a9.2,9.2 0 0 1 -9.189987,9.190002l-0.020004,0.01001zm80.25,0l-47.930008,0c-5.079987,0 -9.199997,-4.119995 -9.199997,-9.200012l0,-41.669983c0,-5.080017 4.12001,-9.200012 9.199997,-9.200012l47.930008,0c5.079987,0 9.200012,4.119995 9.200012,9.200012l0,41.669983a9.19,9.19 0 0 1 -9.200012,9.200012zm80.26001,0l-47.930023,0c-5.079987,0 -9.200012,-4.119995 -9.200012,-9.200012l0,-41.669983c0,-5.080017 4.120026,-9.200012 9.200012,-9.200012l47.929993,0c5.080017,0 9.200012,4.119995 9.200012,9.200012l0,41.669983a9.19,9.19 0 0 1 -9.200012,9.200012l0.000031,0zm80.269989,0l-47.929993,0c-5.080017,0 -9.200012,-4.119995 -9.200012,-9.200012l0,-41.669983c0,-5.080017 4.119995,-9.200012 9.200012,-9.200012l47.929993,0c5.079987,0 9.200012,4.119995 9.200012,9.200012l0,41.669983c0,5.070007 -4.100006,9.200012 -9.200012,9.200012zm80.25,0l-47.929993,0c-5.080017,0 -9.200012,-4.119995 -9.200012,-9.200012l0,-41.669983c0,-5.080017 4.119995,-9.200012 9.200012,-9.200012l47.929993,0c5.080017,0 9.200012,4.119995 9.200012,9.200012l0,41.669983c-0.01001,5.070007 -4.119995,9.200012 -9.200012,9.200012z"/>
   <g id="svg_71" class="T">
    <path id="svg_72" d="m97.800003,437.5l0,-17.640015l400.469986,0l0,17.640015m-200.629974,-31.73999l0,14m-120.400009,0.099976l0,17.640015m80.249985,-17.640015l0,17.640015"/>
    <path id="svg_73" d="m337.769989,419.859985l0,17.639984m80.25,-17.639984l0,17.639984m80.26001,60.060028l0,17.640015l-400.479996,0l0,-17.640015"/>
    <path id="svg_74" d="m418.839996,515.200012l0,-17.640015m-80.23999,17.640015l0,-17.640015m-80.269989,17.640015l0,-17.640015m-80.26001,17.640015l0,-17.640015"/>
   </g>
  </g>
 </g>
</svg>
